<?xml version="1.0" standalone="no"?>
<!DOCTYPE svg PUBLIC "-//W3C//DTD SVG 20010904//EN"
 "http://www.w3.org/TR/2001/REC-SVG-20010904/DTD/svg10.dtd">
<svg version="1.0" xmlns="http://www.w3.org/2000/svg"
 width="400.000000pt" height="400.000000pt" viewBox="0 0 400.000000 400.000000"
 preserveAspectRatio="xMidYMid meet">

<g transform="translate(0.000000,400.000000) scale(0.100000,-0.100000)"
fill="#000000" stroke="none">
<path d="M1868 3955 c-87 -23 -165 -48 -174 -56 -9 -7 -43 -49 -76 -91 -48
-64 -63 -77 -81 -73 -12 2 -62 12 -110 21 l-88 15 -172 -57 c-95 -31 -178 -62
-186 -69 -24 -23 -5 -42 55 -57 l59 -14 -65 -39 c-106 -63 -157 -103 -181
-143 -87 -147 -189 -337 -189 -354 0 -18 5 -20 44 -16 42 5 44 4 36 -16 -4
-11 -38 -90 -74 -175 -63 -145 -73 -191 -44 -191 6 0 20 7 30 17 10 9 20 14
23 12 2 -3 -8 -61 -22 -129 -22 -107 -24 -140 -19 -233 7 -113 43 -343 73
-462 16 -61 16 -78 6 -130 -37 -178 60 -404 203 -472 28 -14 37 -27 55 -82 34
-104 86 -217 128 -280 81 -119 248 -251 423 -334 53 -25 87 -48 88 -57 0 -10
-89 -64 -247 -150 l-247 -135 -23 -95 c-12 -52 -22 -98 -23 -102 0 -5 419 -8
930 -8 512 0 930 3 930 8 -1 4 -11 50 -23 102 l-23 95 -247 135 c-158 86 -247
140 -247 150 1 9 35 32 88 57 175 83 342 215 423 334 42 63 94 176 128 280 18
55 27 68 55 82 143 68 240 294 203 472 -10 48 -10 70 1 110 40 160 82 436 82
545 0 30 -11 109 -25 175 -13 65 -22 121 -20 124 3 2 13 -3 23 -13 21 -18 52
-12 52 9 0 7 -33 91 -74 187 -41 95 -73 174 -72 175 1 2 16 -1 32 -6 76 -21
72 6 -30 187 -134 238 -117 219 -301 341 l-164 109 37 9 c29 7 37 13 37 32 0
20 -15 28 -135 72 -265 97 -295 104 -478 104 l-164 0 43 35 c24 19 57 47 74
62 l30 27 -105 0 c-90 -1 -127 -7 -262 -44z m243 -1110 c95 -41 178 -75 185
-75 24 0 24 37 -1 93 -13 32 -21 57 -17 57 5 0 72 -29 151 -65 79 -36 152 -65
163 -65 24 0 33 23 18 50 -6 12 -10 24 -7 26 5 5 134 -39 174 -59 35 -19 49
-56 114 -322 l42 -170 96 -98 95 -97 4 -63 c10 -155 -75 -648 -148 -860 -52
-151 -80 -213 -128 -284 -122 -179 -409 -355 -700 -429 -119 -30 -185 -30
-304 0 -359 91 -659 304 -764 543 -111 251 -227 818 -211 1036 4 69 5 69 69
135 112 117 105 104 163 328 29 115 58 221 64 236 12 32 42 49 136 77 131 38
560 97 616 84 9 -2 95 -37 190 -78z m-1267 -1147 c10 -62 20 -124 23 -138 6
-23 5 -24 -11 -11 -13 11 -20 11 -28 3 -9 -9 -3 -21 24 -50 27 -29 39 -53 53
-110 10 -40 15 -76 11 -79 -12 -13 -87 73 -117 132 -52 105 -57 228 -15 328
27 66 42 48 60 -75z m2372 75 c42 -100 37 -223 -15 -328 -30 -59 -105 -145
-117 -132 -4 3 1 39 11 79 14 57 26 81 53 110 27 29 33 41 24 50 -8 8 -15 8
-28 -3 -16 -13 -17 -12 -11 11 3 14 13 76 23 138 18 123 33 141 60 75z m-1466
-1324 c94 -29 194 -49 250 -49 56 0 156 20 250 49 36 12 68 21 72 21 12 0 -14
-63 -44 -107 -102 -150 -363 -180 -506 -58 -45 39 -79 88 -92 135 -10 36 -12
35 70 9z"/>
<path d="M1395 2194 c-62 -9 -77 -15 -116 -51 -38 -34 -69 -80 -69 -101 0 -6
27 -2 60 9 88 27 217 47 374 59 77 5 144 14 148 18 13 13 -17 40 -60 52 -39
11 -285 22 -337 14z"/>
<path d="M2318 2190 c-85 -14 -139 -46 -108 -65 5 -3 71 -10 147 -15 149 -11
272 -30 371 -60 34 -10 62 -14 62 -9 0 33 -68 113 -119 139 -30 15 -276 22
-353 10z"/>
<path d="M1475 1951 c-96 -24 -155 -94 -155 -185 0 -25 5 -48 10 -51 20 -13
40 17 40 59 0 85 72 145 175 146 80 0 139 -47 154 -123 5 -23 13 -33 29 -35
19 -3 22 1 22 30 0 20 -12 53 -29 79 -47 75 -141 105 -246 80z"/>
<path d="M2371 1950 c-70 -30 -121 -98 -121 -160 0 -23 4 -30 20 -30 14 0 22
10 30 39 21 78 76 121 157 121 101 -1 173 -61 173 -146 0 -42 20 -72 40 -59
16 10 12 92 -6 128 -23 46 -44 66 -88 89 -44 23 -168 34 -205 18z"/>
<path d="M1494 1884 c-117 -40 -92 -164 33 -164 69 0 134 60 118 110 -16 49
-89 75 -151 54z m111 -54 c0 -9 -11 -16 -27 -18 -27 -3 -38 14 -21 32 12 12
48 2 48 -14z"/>
<path d="M2432 1889 c-89 -19 -105 -103 -30 -149 61 -37 161 -17 174 35 18 73
-57 133 -144 114z m113 -69 c0 -9 -11 -16 -27 -18 -23 -3 -28 1 -28 18 0 17 5
21 28 18 16 -2 27 -9 27 -18z"/>
<path d="M1783 1494 c-62 -65 -73 -96 -47 -125 15 -17 29 -20 79 -18 44 1 72
-4 105 -19 25 -12 61 -22 80 -22 19 0 55 10 80 22 33 15 61 20 105 19 50 -2
64 1 79 17 12 14 16 28 11 44 -10 31 -60 93 -97 119 -27 20 -31 20 -46 6 -14
-15 -11 -21 36 -71 29 -30 52 -58 52 -62 0 -4 -25 -4 -56 0 -50 6 -59 4 -86
-19 -23 -19 -41 -25 -78 -25 -37 0 -55 6 -78 25 -27 23 -36 25 -86 19 -31 -4
-56 -4 -56 0 0 4 23 32 51 61 43 46 50 57 39 70 -20 24 -31 19 -87 -41z"/>
<path d="M1524 1099 c-8 -14 27 -42 81 -65 22 -9 65 -28 95 -42 89 -41 139
-53 250 -59 174 -9 266 13 470 116 55 28 71 53 36 59 -10 2 -41 -8 -69 -24
l-50 -27 -134 17 c-168 22 -238 22 -406 0 l-135 -17 -47 26 c-51 29 -80 34
-91 16z m617 -61 c49 -6 89 -15 89 -18 0 -19 -130 -44 -230 -44 -101 0 -230
25 -230 44 0 10 128 27 214 29 38 0 109 -4 157 -11z"/>
</g>
</svg>
